<mxfile host="app.diagrams.net" agent="Mozilla/5.0 (Macintosh; Intel Mac OS X 10_15_7) AppleWebKit/537.36 (KHTML, like Gecko) Chrome/130.0.0.0 Safari/537.36" version="24.8.6">
  <diagram name="第 1 页" id="veYvc7N9t9nZ9YCo-E3M">
    <mxGraphModel dx="2876" dy="1170" grid="1" gridSize="10" guides="1" tooltips="1" connect="1" arrows="1" fold="1" page="1" pageScale="1" pageWidth="827" pageHeight="1169" math="0" shadow="0">
      <root>
        <mxCell id="0" />
        <mxCell id="1" parent="0" />
        <mxCell id="phVuD68tOOP7Y7JKk85J-31" style="edgeStyle=orthogonalEdgeStyle;rounded=0;orthogonalLoop=1;jettySize=auto;html=1;exitX=1;exitY=0.5;exitDx=0;exitDy=0;" edge="1" parent="1" source="phVuD68tOOP7Y7JKk85J-1" target="phVuD68tOOP7Y7JKk85J-30">
          <mxGeometry relative="1" as="geometry" />
        </mxCell>
        <mxCell id="phVuD68tOOP7Y7JKk85J-32" value="dequeue_op" style="edgeLabel;html=1;align=center;verticalAlign=middle;resizable=0;points=[];" vertex="1" connectable="0" parent="phVuD68tOOP7Y7JKk85J-31">
          <mxGeometry x="-0.1333" y="4" relative="1" as="geometry">
            <mxPoint as="offset" />
          </mxGeometry>
        </mxCell>
        <mxCell id="phVuD68tOOP7Y7JKk85J-1" value="&lt;font face=&quot;Times New Roman&quot; style=&quot;font-size: 14px;&quot;&gt;op_shardedwq&lt;/font&gt;" style="rounded=0;whiteSpace=wrap;html=1;fillColor=#dae8fc;strokeColor=#6c8ebf;" vertex="1" parent="1">
          <mxGeometry x="270" y="400" width="120" height="60" as="geometry" />
        </mxCell>
        <mxCell id="phVuD68tOOP7Y7JKk85J-4" style="edgeStyle=orthogonalEdgeStyle;rounded=0;orthogonalLoop=1;jettySize=auto;html=1;exitX=1;exitY=0.5;exitDx=0;exitDy=0;entryX=0;entryY=0.5;entryDx=0;entryDy=0;" edge="1" parent="1" source="phVuD68tOOP7Y7JKk85J-2" target="phVuD68tOOP7Y7JKk85J-3">
          <mxGeometry relative="1" as="geometry" />
        </mxCell>
        <mxCell id="phVuD68tOOP7Y7JKk85J-7" value="wrap" style="edgeLabel;html=1;align=center;verticalAlign=middle;resizable=0;points=[];" vertex="1" connectable="0" parent="phVuD68tOOP7Y7JKk85J-4">
          <mxGeometry x="-0.28" y="-1" relative="1" as="geometry">
            <mxPoint as="offset" />
          </mxGeometry>
        </mxCell>
        <mxCell id="phVuD68tOOP7Y7JKk85J-2" value="Message" style="rounded=1;whiteSpace=wrap;html=1;fillColor=#d5e8d4;strokeColor=#82b366;" vertex="1" parent="1">
          <mxGeometry x="-110" y="400" width="120" height="60" as="geometry" />
        </mxCell>
        <mxCell id="phVuD68tOOP7Y7JKk85J-5" style="edgeStyle=orthogonalEdgeStyle;rounded=0;orthogonalLoop=1;jettySize=auto;html=1;exitX=1;exitY=0.5;exitDx=0;exitDy=0;entryX=0;entryY=0.5;entryDx=0;entryDy=0;" edge="1" parent="1" source="phVuD68tOOP7Y7JKk85J-3" target="phVuD68tOOP7Y7JKk85J-1">
          <mxGeometry relative="1" as="geometry" />
        </mxCell>
        <mxCell id="phVuD68tOOP7Y7JKk85J-6" value="enqueue_op" style="edgeLabel;html=1;align=center;verticalAlign=middle;resizable=0;points=[];" vertex="1" connectable="0" parent="phVuD68tOOP7Y7JKk85J-5">
          <mxGeometry x="-0.0667" y="2" relative="1" as="geometry">
            <mxPoint as="offset" />
          </mxGeometry>
        </mxCell>
        <mxCell id="phVuD68tOOP7Y7JKk85J-22" style="edgeStyle=orthogonalEdgeStyle;rounded=0;orthogonalLoop=1;jettySize=auto;html=1;exitX=0.75;exitY=0;exitDx=0;exitDy=0;" edge="1" parent="1" source="phVuD68tOOP7Y7JKk85J-3" target="phVuD68tOOP7Y7JKk85J-21">
          <mxGeometry relative="1" as="geometry" />
        </mxCell>
        <mxCell id="phVuD68tOOP7Y7JKk85J-3" value="OpRequestRef" style="rounded=1;whiteSpace=wrap;html=1;fillColor=#d5e8d4;strokeColor=#82b366;" vertex="1" parent="1">
          <mxGeometry x="60" y="400" width="120" height="60" as="geometry" />
        </mxCell>
        <mxCell id="phVuD68tOOP7Y7JKk85J-8" value="" style="endArrow=classic;html=1;rounded=0;entryX=0.5;entryY=0;entryDx=0;entryDy=0;" edge="1" parent="1" target="phVuD68tOOP7Y7JKk85J-2">
          <mxGeometry width="50" height="50" relative="1" as="geometry">
            <mxPoint x="-50" y="360" as="sourcePoint" />
            <mxPoint x="-60" y="270" as="targetPoint" />
          </mxGeometry>
        </mxCell>
        <mxCell id="phVuD68tOOP7Y7JKk85J-12" value="create" style="edgeLabel;html=1;align=center;verticalAlign=middle;resizable=0;points=[];" vertex="1" connectable="0" parent="phVuD68tOOP7Y7JKk85J-8">
          <mxGeometry x="-0.4" relative="1" as="geometry">
            <mxPoint as="offset" />
          </mxGeometry>
        </mxCell>
        <mxCell id="phVuD68tOOP7Y7JKk85J-9" value="" style="endArrow=classic;html=1;rounded=0;entryX=0.5;entryY=0;entryDx=0;entryDy=0;" edge="1" parent="1">
          <mxGeometry width="50" height="50" relative="1" as="geometry">
            <mxPoint x="-50.5" y="461" as="sourcePoint" />
            <mxPoint x="-50.5" y="501" as="targetPoint" />
          </mxGeometry>
        </mxCell>
        <mxCell id="phVuD68tOOP7Y7JKk85J-13" value="destory" style="edgeLabel;html=1;align=center;verticalAlign=middle;resizable=0;points=[];" vertex="1" connectable="0" parent="phVuD68tOOP7Y7JKk85J-9">
          <mxGeometry x="0.15" relative="1" as="geometry">
            <mxPoint x="1" y="-4" as="offset" />
          </mxGeometry>
        </mxCell>
        <mxCell id="phVuD68tOOP7Y7JKk85J-10" value="&lt;ol style=&quot;padding-left: 15px;&quot;&gt;&lt;li&gt;&lt;font face=&quot;Times New Roman&quot;&gt;get throttle （bytes, msgs）&lt;/font&gt;&lt;/li&gt;&lt;li&gt;&lt;font face=&quot;Times New Roman&quot;&gt;set completion hook&lt;/font&gt;&lt;/li&gt;&lt;/ol&gt;" style="text;html=1;align=left;verticalAlign=middle;whiteSpace=wrap;rounded=0;fillColor=#fff2cc;strokeColor=#d6b656;autosize=1;" vertex="1" parent="1">
          <mxGeometry x="-240" y="360" width="150" height="30" as="geometry" />
        </mxCell>
        <mxCell id="phVuD68tOOP7Y7JKk85J-11" value="&lt;ol style=&quot;padding-left: 15px;&quot;&gt;&lt;li&gt;&lt;font face=&quot;Times New Roman&quot;&gt;put throttle （bytes, msgs）&lt;/font&gt;&lt;/li&gt;&lt;li&gt;&lt;font face=&quot;Times New Roman&quot;&gt;call completion hook&lt;/font&gt;&lt;/li&gt;&lt;/ol&gt;" style="text;html=1;align=left;verticalAlign=middle;whiteSpace=wrap;rounded=0;fillColor=#fff2cc;strokeColor=#d6b656;" vertex="1" parent="1">
          <mxGeometry x="-240" y="470" width="150" height="30" as="geometry" />
        </mxCell>
        <mxCell id="phVuD68tOOP7Y7JKk85J-14" value="" style="endArrow=classic;html=1;rounded=0;entryX=0.5;entryY=0;entryDx=0;entryDy=0;" edge="1" parent="1">
          <mxGeometry width="50" height="50" relative="1" as="geometry">
            <mxPoint x="119.5" y="360" as="sourcePoint" />
            <mxPoint x="119.5" y="400" as="targetPoint" />
          </mxGeometry>
        </mxCell>
        <mxCell id="phVuD68tOOP7Y7JKk85J-15" value="create" style="edgeLabel;html=1;align=center;verticalAlign=middle;resizable=0;points=[];" vertex="1" connectable="0" parent="phVuD68tOOP7Y7JKk85J-14">
          <mxGeometry x="-0.4" relative="1" as="geometry">
            <mxPoint as="offset" />
          </mxGeometry>
        </mxCell>
        <mxCell id="phVuD68tOOP7Y7JKk85J-16" value="" style="endArrow=classic;html=1;rounded=0;entryX=0.5;entryY=0;entryDx=0;entryDy=0;" edge="1" parent="1">
          <mxGeometry width="50" height="50" relative="1" as="geometry">
            <mxPoint x="120" y="461" as="sourcePoint" />
            <mxPoint x="120" y="501" as="targetPoint" />
            <Array as="points">
              <mxPoint x="120" y="466" />
            </Array>
          </mxGeometry>
        </mxCell>
        <mxCell id="phVuD68tOOP7Y7JKk85J-17" value="destory" style="edgeLabel;html=1;align=center;verticalAlign=middle;resizable=0;points=[];" vertex="1" connectable="0" parent="phVuD68tOOP7Y7JKk85J-16">
          <mxGeometry x="0.15" relative="1" as="geometry">
            <mxPoint y="-4" as="offset" />
          </mxGeometry>
        </mxCell>
        <mxCell id="phVuD68tOOP7Y7JKk85J-28" value="" style="edgeStyle=orthogonalEdgeStyle;rounded=0;orthogonalLoop=1;jettySize=auto;html=1;entryX=0.5;entryY=1;entryDx=0;entryDy=0;" edge="1" parent="1" source="phVuD68tOOP7Y7JKk85J-18" target="phVuD68tOOP7Y7JKk85J-24">
          <mxGeometry relative="1" as="geometry" />
        </mxCell>
        <mxCell id="phVuD68tOOP7Y7JKk85J-18" value="&lt;ol style=&quot;padding-left: 15px;&quot;&gt;&lt;li&gt;register inflight op&lt;/li&gt;&lt;/ol&gt;" style="text;html=1;align=left;verticalAlign=middle;resizable=1;points=[];autosize=1;strokeColor=#d6b656;fillColor=#fff2cc;fontFamily=Times New Roman;" vertex="1" parent="1">
          <mxGeometry x="-20" y="360" width="108" height="23" as="geometry" />
        </mxCell>
        <mxCell id="phVuD68tOOP7Y7JKk85J-19" value="&lt;ol style=&quot;padding-left: 15px;&quot;&gt;&lt;li&gt;register history op&lt;/li&gt;&lt;/ol&gt;" style="text;html=1;align=left;verticalAlign=middle;resizable=1;points=[];autosize=1;strokeColor=#d6b656;fillColor=#fff2cc;fontFamily=Times New Roman;" vertex="1" parent="1">
          <mxGeometry x="-20" y="470" width="108" height="25" as="geometry" />
        </mxCell>
        <mxCell id="phVuD68tOOP7Y7JKk85J-23" style="edgeStyle=orthogonalEdgeStyle;rounded=0;orthogonalLoop=1;jettySize=auto;html=1;exitX=0.5;exitY=0;exitDx=0;exitDy=0;entryX=0.5;entryY=0;entryDx=0;entryDy=0;" edge="1" parent="1" source="phVuD68tOOP7Y7JKk85J-21" target="phVuD68tOOP7Y7JKk85J-1">
          <mxGeometry relative="1" as="geometry">
            <Array as="points">
              <mxPoint x="230" y="290" />
              <mxPoint x="330" y="290" />
            </Array>
          </mxGeometry>
        </mxCell>
        <mxCell id="phVuD68tOOP7Y7JKk85J-21" value="waiting_for_osdmap" style="rounded=1;whiteSpace=wrap;html=1;fillColor=#e1d5e7;strokeColor=#9673a6;" vertex="1" parent="1">
          <mxGeometry x="170" y="304" width="120" height="40" as="geometry" />
        </mxCell>
        <mxCell id="phVuD68tOOP7Y7JKk85J-24" value="&lt;div&gt;【op track thread】&lt;/div&gt;" style="rounded=0;whiteSpace=wrap;html=1;fillColor=#fad7ac;strokeColor=#b46504;" vertex="1" parent="1">
          <mxGeometry y="300" width="120" height="30" as="geometry" />
        </mxCell>
        <mxCell id="phVuD68tOOP7Y7JKk85J-25" value="Messenger Thread" style="rounded=0;whiteSpace=wrap;html=1;fillColor=#f8cecc;strokeColor=#b85450;" vertex="1" parent="1">
          <mxGeometry x="-240" y="230" width="570" height="30" as="geometry" />
        </mxCell>
        <mxCell id="phVuD68tOOP7Y7JKk85J-26" value="OSD Thread" style="rounded=0;whiteSpace=wrap;html=1;fillColor=#b0e3e6;strokeColor=#0e8088;" vertex="1" parent="1">
          <mxGeometry x="330" y="230" width="1270" height="30" as="geometry" />
        </mxCell>
        <mxCell id="phVuD68tOOP7Y7JKk85J-30" value="OpRequestRef" style="rounded=1;whiteSpace=wrap;html=1;fillColor=#d5e8d4;strokeColor=#82b366;" vertex="1" parent="1">
          <mxGeometry x="480" y="400" width="120" height="60" as="geometry" />
        </mxCell>
        <mxCell id="phVuD68tOOP7Y7JKk85J-33" value="&lt;p style=&quot;line-height: 140%;&quot;&gt;&lt;/p&gt;&lt;ol style=&quot;padding: 0px 0px 0px 20px; margin-right: 0px; line-height: 300%;&quot;&gt;&lt;li&gt;&lt;b&gt;PG lock&lt;/b&gt;&lt;/li&gt;&lt;li&gt;tracepoint(start)&lt;/li&gt;&lt;li&gt;&lt;b&gt;run_op&lt;/b&gt;&lt;/li&gt;&lt;li&gt;tracepoint(end)&lt;/li&gt;&lt;li&gt;&lt;b&gt;PG unlock&lt;/b&gt;&lt;/li&gt;&lt;/ol&gt;&lt;p&gt;&lt;/p&gt;" style="text;html=1;align=left;verticalAlign=middle;resizable=0;points=[];autosize=1;strokeColor=#d6b656;fillColor=#fff2cc;fontFamily=Times New Roman;" vertex="1" parent="1">
          <mxGeometry x="610" y="320" width="120" height="220" as="geometry" />
        </mxCell>
        <mxCell id="phVuD68tOOP7Y7JKk85J-34" value="" style="endArrow=classic;html=1;rounded=0;" edge="1" parent="1" source="phVuD68tOOP7Y7JKk85J-69">
          <mxGeometry width="50" height="50" relative="1" as="geometry">
            <mxPoint x="740" y="424" as="sourcePoint" />
            <mxPoint x="1600" y="424" as="targetPoint" />
          </mxGeometry>
        </mxCell>
        <mxCell id="phVuD68tOOP7Y7JKk85J-35" value="" style="endArrow=classic;html=1;rounded=0;" edge="1" parent="1">
          <mxGeometry width="50" height="50" relative="1" as="geometry">
            <mxPoint x="1600" y="440" as="sourcePoint" />
            <mxPoint x="739" y="440" as="targetPoint" />
          </mxGeometry>
        </mxCell>
        <mxCell id="phVuD68tOOP7Y7JKk85J-36" value="mark_queued_for_pg" style="ellipse;whiteSpace=wrap;html=1;fillColor=#f5f5f5;fontColor=#333333;strokeColor=#666666;" vertex="1" parent="1">
          <mxGeometry x="150" y="550" width="140" height="50" as="geometry" />
        </mxCell>
        <mxCell id="phVuD68tOOP7Y7JKk85J-37" value="" style="endArrow=classic;html=1;rounded=0;entryX=0.5;entryY=0;entryDx=0;entryDy=0;dashed=1;" edge="1" parent="1" target="phVuD68tOOP7Y7JKk85J-36">
          <mxGeometry width="50" height="50" relative="1" as="geometry">
            <mxPoint x="220" y="450" as="sourcePoint" />
            <mxPoint x="380" y="480" as="targetPoint" />
          </mxGeometry>
        </mxCell>
        <mxCell id="phVuD68tOOP7Y7JKk85J-38" value="mark_started" style="ellipse;whiteSpace=wrap;html=1;fillColor=#f5f5f5;fontColor=#333333;strokeColor=#666666;" vertex="1" parent="1">
          <mxGeometry x="1530" y="550" width="140" height="50" as="geometry" />
        </mxCell>
        <mxCell id="phVuD68tOOP7Y7JKk85J-39" value="" style="endArrow=classic;html=1;rounded=0;entryX=0.5;entryY=0;entryDx=0;entryDy=0;dashed=1;" edge="1" parent="1" target="phVuD68tOOP7Y7JKk85J-38">
          <mxGeometry width="50" height="50" relative="1" as="geometry">
            <mxPoint x="1600" y="450" as="sourcePoint" />
            <mxPoint x="1760" y="480" as="targetPoint" />
          </mxGeometry>
        </mxCell>
        <mxCell id="phVuD68tOOP7Y7JKk85J-40" value="mark_reached_pg" style="ellipse;whiteSpace=wrap;html=1;fillColor=#f5f5f5;fontColor=#333333;strokeColor=#666666;" vertex="1" parent="1">
          <mxGeometry x="360" y="550" width="140" height="50" as="geometry" />
        </mxCell>
        <mxCell id="phVuD68tOOP7Y7JKk85J-41" value="" style="endArrow=classic;html=1;rounded=0;entryX=0.5;entryY=0;entryDx=0;entryDy=0;dashed=1;" edge="1" parent="1" target="phVuD68tOOP7Y7JKk85J-40">
          <mxGeometry width="50" height="50" relative="1" as="geometry">
            <mxPoint x="430" y="450" as="sourcePoint" />
            <mxPoint x="590" y="480" as="targetPoint" />
          </mxGeometry>
        </mxCell>
        <mxCell id="phVuD68tOOP7Y7JKk85J-47" style="edgeStyle=orthogonalEdgeStyle;rounded=0;orthogonalLoop=1;jettySize=auto;html=1;exitX=0.5;exitY=0;exitDx=0;exitDy=0;entryX=0.5;entryY=0;entryDx=0;entryDy=0;" edge="1" parent="1" source="phVuD68tOOP7Y7JKk85J-42" target="phVuD68tOOP7Y7JKk85J-1">
          <mxGeometry relative="1" as="geometry" />
        </mxCell>
        <mxCell id="phVuD68tOOP7Y7JKk85J-42" value="waiting_for_peered" style="rounded=1;whiteSpace=wrap;html=1;fillColor=#e1d5e7;strokeColor=#9673a6;" vertex="1" parent="1">
          <mxGeometry x="760" y="308.5" width="120" height="35" as="geometry" />
        </mxCell>
        <mxCell id="phVuD68tOOP7Y7JKk85J-48" style="edgeStyle=orthogonalEdgeStyle;rounded=0;orthogonalLoop=1;jettySize=auto;html=1;exitX=0.5;exitY=0;exitDx=0;exitDy=0;entryX=0.5;entryY=0;entryDx=0;entryDy=0;" edge="1" parent="1" source="phVuD68tOOP7Y7JKk85J-43" target="phVuD68tOOP7Y7JKk85J-1">
          <mxGeometry relative="1" as="geometry" />
        </mxCell>
        <mxCell id="phVuD68tOOP7Y7JKk85J-43" value="waiting_for_active" style="rounded=1;whiteSpace=wrap;html=1;fillColor=#e1d5e7;strokeColor=#9673a6;" vertex="1" parent="1">
          <mxGeometry x="900" y="308.5" width="120" height="35" as="geometry" />
        </mxCell>
        <mxCell id="phVuD68tOOP7Y7JKk85J-49" style="edgeStyle=orthogonalEdgeStyle;rounded=0;orthogonalLoop=1;jettySize=auto;html=1;exitX=0.5;exitY=0;exitDx=0;exitDy=0;entryX=0.5;entryY=0;entryDx=0;entryDy=0;" edge="1" parent="1" source="phVuD68tOOP7Y7JKk85J-44" target="phVuD68tOOP7Y7JKk85J-1">
          <mxGeometry relative="1" as="geometry" />
        </mxCell>
        <mxCell id="phVuD68tOOP7Y7JKk85J-44" value="waiting_for_unreadable_object" style="rounded=1;whiteSpace=wrap;html=1;fillColor=#e1d5e7;strokeColor=#9673a6;" vertex="1" parent="1">
          <mxGeometry x="1040" y="308.5" width="180" height="35" as="geometry" />
        </mxCell>
        <mxCell id="phVuD68tOOP7Y7JKk85J-50" style="edgeStyle=orthogonalEdgeStyle;rounded=0;orthogonalLoop=1;jettySize=auto;html=1;exitX=0.5;exitY=0;exitDx=0;exitDy=0;" edge="1" parent="1" source="phVuD68tOOP7Y7JKk85J-45">
          <mxGeometry relative="1" as="geometry">
            <mxPoint x="330" y="400" as="targetPoint" />
          </mxGeometry>
        </mxCell>
        <mxCell id="phVuD68tOOP7Y7JKk85J-45" value="waiting_for_degraded_object" style="rounded=1;whiteSpace=wrap;html=1;fillColor=#e1d5e7;strokeColor=#9673a6;" vertex="1" parent="1">
          <mxGeometry x="1230" y="308.5" width="180" height="35" as="geometry" />
        </mxCell>
        <mxCell id="phVuD68tOOP7Y7JKk85J-51" style="edgeStyle=orthogonalEdgeStyle;rounded=0;orthogonalLoop=1;jettySize=auto;html=1;exitX=0.5;exitY=0;exitDx=0;exitDy=0;entryX=0.5;entryY=0;entryDx=0;entryDy=0;" edge="1" parent="1" source="phVuD68tOOP7Y7JKk85J-46" target="phVuD68tOOP7Y7JKk85J-1">
          <mxGeometry relative="1" as="geometry" />
        </mxCell>
        <mxCell id="phVuD68tOOP7Y7JKk85J-52" value="requeue_ops" style="edgeLabel;html=1;align=center;verticalAlign=middle;resizable=0;points=[];" vertex="1" connectable="0" parent="phVuD68tOOP7Y7JKk85J-51">
          <mxGeometry x="0.5113" y="-1" relative="1" as="geometry">
            <mxPoint x="-1" as="offset" />
          </mxGeometry>
        </mxCell>
        <mxCell id="phVuD68tOOP7Y7JKk85J-46" value="waiting_for_scrub" style="rounded=1;whiteSpace=wrap;html=1;fillColor=#e1d5e7;strokeColor=#9673a6;" vertex="1" parent="1">
          <mxGeometry x="1420" y="308.5" width="140" height="35" as="geometry" />
        </mxCell>
        <mxCell id="phVuD68tOOP7Y7JKk85J-53" value="" style="endArrow=classic;html=1;rounded=0;" edge="1" parent="1">
          <mxGeometry width="50" height="50" relative="1" as="geometry">
            <mxPoint x="820" y="420" as="sourcePoint" />
            <mxPoint x="820" y="350" as="targetPoint" />
          </mxGeometry>
        </mxCell>
        <mxCell id="phVuD68tOOP7Y7JKk85J-54" value="" style="endArrow=classic;html=1;rounded=0;" edge="1" parent="1">
          <mxGeometry width="50" height="50" relative="1" as="geometry">
            <mxPoint x="959.64" y="420" as="sourcePoint" />
            <mxPoint x="959.64" y="350" as="targetPoint" />
          </mxGeometry>
        </mxCell>
        <mxCell id="phVuD68tOOP7Y7JKk85J-55" value="" style="endArrow=classic;html=1;rounded=0;" edge="1" parent="1">
          <mxGeometry width="50" height="50" relative="1" as="geometry">
            <mxPoint x="1129.6399999999999" y="420" as="sourcePoint" />
            <mxPoint x="1129.6399999999999" y="350" as="targetPoint" />
          </mxGeometry>
        </mxCell>
        <mxCell id="phVuD68tOOP7Y7JKk85J-56" value="" style="endArrow=classic;html=1;rounded=0;" edge="1" parent="1">
          <mxGeometry width="50" height="50" relative="1" as="geometry">
            <mxPoint x="1319.6399999999999" y="420" as="sourcePoint" />
            <mxPoint x="1319.6399999999999" y="350" as="targetPoint" />
          </mxGeometry>
        </mxCell>
        <mxCell id="phVuD68tOOP7Y7JKk85J-57" value="" style="endArrow=classic;html=1;rounded=0;" edge="1" parent="1">
          <mxGeometry width="50" height="50" relative="1" as="geometry">
            <mxPoint x="1489.52" y="420" as="sourcePoint" />
            <mxPoint x="1489.52" y="350" as="targetPoint" />
          </mxGeometry>
        </mxCell>
        <mxCell id="phVuD68tOOP7Y7JKk85J-58" value="mark_delayed(&quot;xxx&quot;)" style="ellipse;whiteSpace=wrap;html=1;fillColor=#f5f5f5;fontColor=#333333;strokeColor=#666666;" vertex="1" parent="1">
          <mxGeometry x="1101" y="550" width="140" height="50" as="geometry" />
        </mxCell>
        <mxCell id="phVuD68tOOP7Y7JKk85J-59" value="" style="endArrow=classic;html=1;rounded=0;entryX=0.5;entryY=0;entryDx=0;entryDy=0;dashed=1;" edge="1" parent="1" target="phVuD68tOOP7Y7JKk85J-58">
          <mxGeometry width="50" height="50" relative="1" as="geometry">
            <mxPoint x="1170" y="450" as="sourcePoint" />
            <mxPoint x="1170.44" y="540" as="targetPoint" />
          </mxGeometry>
        </mxCell>
        <mxCell id="phVuD68tOOP7Y7JKk85J-60" value="insert queue" style="edgeLabel;html=1;align=center;verticalAlign=middle;resizable=0;points=[];" vertex="1" connectable="0" parent="phVuD68tOOP7Y7JKk85J-59">
          <mxGeometry x="-0.2199" y="1" relative="1" as="geometry">
            <mxPoint as="offset" />
          </mxGeometry>
        </mxCell>
        <mxCell id="phVuD68tOOP7Y7JKk85J-61" value="" style="endArrow=classic;html=1;rounded=0;" edge="1" parent="1">
          <mxGeometry width="50" height="50" relative="1" as="geometry">
            <mxPoint x="1030" y="450" as="sourcePoint" />
            <mxPoint x="1030" y="660" as="targetPoint" />
          </mxGeometry>
        </mxCell>
        <mxCell id="phVuD68tOOP7Y7JKk85J-62" value="&lt;div style=&quot;&quot;&gt;PRIVATE-STORAGE-2267&amp;nbsp;&amp;nbsp;&lt;/div&gt;&lt;div style=&quot;&quot;&gt;osd: set timeout for client requests in rados&lt;/div&gt;" style="rounded=1;whiteSpace=wrap;html=1;align=center;fillColor=#fa6800;fontColor=#000000;strokeColor=#C73500;" vertex="1" parent="1">
          <mxGeometry x="910" y="660" width="280" height="40" as="geometry" />
        </mxCell>
        <mxCell id="phVuD68tOOP7Y7JKk85J-63" value="&lt;div style=&quot;font-size: 13px;&quot;&gt;&lt;ol style=&quot;padding-left: 20px;&quot;&gt;&lt;li&gt;队列基本都是 std::list，无遍历需求&lt;/li&gt;&lt;li&gt;requeue op 是由 pg 的 op 执行 (检测到对应的阻塞条件恢复， client op 只会添加)&lt;/li&gt;&lt;/ol&gt;&lt;/div&gt;" style="text;html=1;align=left;verticalAlign=middle;whiteSpace=wrap;rounded=0;fillColor=#fff2cc;strokeColor=#d6b656;" vertex="1" parent="1">
          <mxGeometry x="1600" y="299.5" width="270" height="49" as="geometry" />
        </mxCell>
        <mxCell id="phVuD68tOOP7Y7JKk85J-64" value="&lt;font style=&quot;font-size: 13px;&quot;&gt;op_shardedwq 是一个抽象的队列，只提供 enqueue / dequeue 的简单 API&lt;br&gt;&lt;br&gt;[包含 osd_shard 个数的 子队列，每个&amp;nbsp;osd_shard 的队列也是个抽象队列]&lt;br&gt;[osd shard 的 pqueue 实例化的类型有 WeightedPriorityQueue /&amp;nbsp;PrioritizedQueue /&amp;nbsp;mClockOpClassQueue /&amp;nbsp;mClockClientQueue ]&lt;/font&gt;" style="text;align=left;verticalAlign=middle;resizable=0;points=[];autosize=0;strokeColor=#d6b656;fillColor=#fff2cc;rotatable=1;autosizeGrid=1;html=1;" vertex="1" parent="1">
          <mxGeometry x="-30" y="640" width="750" height="80" as="geometry" />
        </mxCell>
        <mxCell id="phVuD68tOOP7Y7JKk85J-65" value="" style="endArrow=classic;html=1;rounded=0;" edge="1" parent="1" source="phVuD68tOOP7Y7JKk85J-67">
          <mxGeometry width="50" height="50" relative="1" as="geometry">
            <mxPoint x="328.89" y="470" as="sourcePoint" />
            <mxPoint x="329" y="630" as="targetPoint" />
          </mxGeometry>
        </mxCell>
        <mxCell id="phVuD68tOOP7Y7JKk85J-68" value="" style="endArrow=classic;html=1;rounded=0;" edge="1" parent="1" target="phVuD68tOOP7Y7JKk85J-67">
          <mxGeometry width="50" height="50" relative="1" as="geometry">
            <mxPoint x="328.89" y="470" as="sourcePoint" />
            <mxPoint x="329" y="630" as="targetPoint" />
          </mxGeometry>
        </mxCell>
        <mxCell id="phVuD68tOOP7Y7JKk85J-67" value="&lt;b&gt;&lt;font style=&quot;font-size: 15px;&quot; face=&quot;Times New Roman&quot;&gt;shard_lock&lt;/font&gt;&lt;/b&gt;" style="html=1;verticalLabelPosition=bottom;align=center;labelBackgroundColor=#ffffff;verticalAlign=top;strokeWidth=2;strokeColor=#0080F0;shadow=0;dashed=0;shape=mxgraph.ios7.icons.locked;" vertex="1" parent="1">
          <mxGeometry x="318" y="490" width="24" height="30" as="geometry" />
        </mxCell>
        <mxCell id="phVuD68tOOP7Y7JKk85J-70" value="" style="endArrow=classic;html=1;rounded=0;" edge="1" parent="1" target="phVuD68tOOP7Y7JKk85J-69">
          <mxGeometry width="50" height="50" relative="1" as="geometry">
            <mxPoint x="740" y="424" as="sourcePoint" />
            <mxPoint x="1600" y="424" as="targetPoint" />
          </mxGeometry>
        </mxCell>
        <mxCell id="phVuD68tOOP7Y7JKk85J-69" value="&lt;b&gt;&lt;font style=&quot;font-size: 15px;&quot; face=&quot;Times New Roman&quot;&gt;PG_lock&lt;/font&gt;&lt;/b&gt;" style="html=1;verticalLabelPosition=bottom;align=center;labelBackgroundColor=#ffffff;verticalAlign=top;strokeWidth=2;strokeColor=#0080F0;shadow=0;dashed=0;shape=mxgraph.ios7.icons.locked;" vertex="1" parent="1">
          <mxGeometry x="1250" y="410" width="24" height="30" as="geometry" />
        </mxCell>
        <mxCell id="phVuD68tOOP7Y7JKk85J-71" value="&lt;font size=&quot;1&quot; face=&quot;Times New Roman&quot; style=&quot;&quot;&gt;&lt;b style=&quot;font-size: 15px;&quot;&gt;osd_lock&lt;/b&gt;&lt;/font&gt;" style="html=1;verticalLabelPosition=bottom;align=center;labelBackgroundColor=#ffffff;verticalAlign=top;strokeWidth=2;strokeColor=#0080F0;shadow=0;dashed=0;shape=mxgraph.ios7.icons.locked;" vertex="1" parent="1">
          <mxGeometry x="130" y="299.5" width="24" height="30" as="geometry" />
        </mxCell>
        <mxCell id="phVuD68tOOP7Y7JKk85J-72" value="" style="strokeWidth=2;html=1;shape=mxgraph.flowchart.annotation_2;align=left;labelPosition=right;pointerEvents=1;rotation=-90;" vertex="1" parent="1">
          <mxGeometry x="1216" y="272" width="20" height="170" as="geometry" />
        </mxCell>
        <mxCell id="phVuD68tOOP7Y7JKk85J-73" value="依据配置项决定是放入队列&lt;div&gt;还是对该对象执行 backoff&lt;/div&gt;" style="text;html=1;align=center;verticalAlign=middle;resizable=0;points=[];autosize=1;strokeColor=#d6b656;fillColor=#fff2cc;" vertex="1" parent="1">
          <mxGeometry x="1140" y="370" width="170" height="40" as="geometry" />
        </mxCell>
      </root>
    </mxGraphModel>
  </diagram>
</mxfile>
